<svg xmlns="http://www.w3.org/2000/svg" width="32" height="32"><path fill="#fff" d="M8 4h16v24H8z"/><path d="M5 4h4v24H5c-2.208 0-4-1.792-4-4V8c0-2.208 1.792-4 4-4zM27 28h-4V4h4c2.208 0 4 1.792 4 4v16c0 2.208-1.792 4-4 4z" fill="#c53a28"/><path d="M27 4H5a4 4 0 0 0-4 4v16a4 4 0 0 0 4 4h22a4 4 0 0 0 4-4V8a4 4 0 0 0-4-4zm3 20c0 1.654-1.346 3-3 3H5c-1.654 0-3-1.346-3-3V8c0-1.654 1.346-3 3-3h22c1.654 0 3 1.346 3 3v16z" opacity=".15"/><path d="M16.275 22.167l-.138-2.641a.292.292 0 0 1 .34-.3l2.629.462-.355-.979a.197.197 0 0 1 .061-.223l2.88-2.332-.649-.303a.199.199 0 0 1-.104-.242l.569-1.751-1.659.352a.198.198 0 0 1-.223-.116l-.321-.756-1.295 1.389a.198.198 0 0 1-.339-.175l.624-3.22-1.001.578a.198.198 0 0 1-.272-.071l-.006-.012L16 9.832l-1.016 1.995a.2.2 0 0 1-.267.089l-.012-.006-1.001-.578.624 3.22a.199.199 0 0 1-.34.175l-1.295-1.389-.321.756a.198.198 0 0 1-.223.116l-1.659-.352.569 1.751a.2.2 0 0 1-.104.242l-.649.303 2.88 2.332a.198.198 0 0 1 .061.223l-.355.979 2.629-.462a.291.291 0 0 1 .34.3l-.138 2.641h.551z" fill="#c53a28"/><path d="M27 5H5a3 3 0 0 0-3 3v1a3 3 0 0 1 3-3h22a3 3 0 0 1 3 3V8a3 3 0 0 0-3-3z" fill="#fff" opacity=".2"/></svg>